<svg width="205" height="50" viewBox="0 0 205 50" fill="none" xmlns="http://www.w3.org/2000/svg">
<path d="M28.5591 0.119885C29.2896 0.125207 30.2147 0.110961 30.7718 0.135852C33.0896 0.157142 35.4522 0.062299 37.7691 0.110961C39.3465 0.129969 40.7244 0.095754 42.3018 0.110961C45.5914 0.146667 50.644 0.0643055 54.4485 0.0882132C55.1224 0.0924483 55.4415 0.915043 54.9542 1.38366L40.375 15.405C39.6722 16.0809 38.7418 16.4581 37.7697 16.4581C34.2456 16.4581 25.3725 16.4581 20.0158 16.4581C20.0158 19.2181 20.0158 21.9781 20.0158 24.8218C18.7693 24.5709 17.5228 24.32 16.2385 24.0615C15.4907 24.3124 14.7428 24.5633 13.9722 24.8218C13.9722 22.0618 13.9722 19.3018 13.9722 16.4581C11.4308 16.6712 8.88932 16.8844 6.2923 17.1022C5.50921 17.1679 4.90684 17.8268 4.90684 18.6176C4.90684 21.4532 4.90684 24.2968 4.90684 27.1971C4.90684 27.9992 5.5258 28.6638 6.32128 28.7122C10.5764 28.9712 14.8282 29.1611 19.0904 29.2919C20.6942 29.3527 22.2972 29.4356 23.8988 29.5413C36.0891 29.689 40.2044 29.7388 41.5937 29.7557C42.0566 29.7613 42.4401 29.5642 42.705 29.1822C44.2103 27.0113 49.5284 19.3633 51.7446 16.4581C53.846 13.798 55.0544 12.4166 55.6868 11.7356C56.057 11.337 56.5748 11.1373 57.1168 11.1393C57.297 11.1399 57.4958 11.1406 57.7029 11.1412C58.9874 11.1449 60.0548 12.2098 60.0548 13.5026V31.994C60.0548 33.2407 59.5479 34.4332 58.6518 35.294L45.0543 48.3576C44.0094 49.3614 42.6418 49.9538 41.1976 49.9767C40.0185 49.9954 38.7613 50.0015 38.0075 49.9997C37.1909 49.9997 36.3742 49.9997 35.5334 49.9997C34.2061 49.9936 34.2061 49.9936 32.8531 49.9875C31.9496 49.9868 31.0461 49.9853 30.1154 49.9845C27.2212 49.9799 24.3271 49.9701 21.4322 49.9609C19.4741 49.9571 17.516 49.9533 15.5571 49.9503C10.748 49.9419 5.93878 49.929 1.12961 49.913C2.54607 46.9667 2.54607 46.9667 3.39595 46.1113C4.57822 46.0186 5.76427 45.976 6.94957 45.9555C7.70577 45.9403 8.46197 45.9251 9.24084 45.9099C10.0635 45.8969 10.8854 45.884 11.7331 45.8711C12.5701 45.8551 13.4071 45.8391 14.2699 45.8232C16.9562 45.773 19.6433 45.7281 22.3297 45.684C24.1458 45.6513 25.9627 45.6179 27.7788 45.5844C31.7467 45.5121 35.7146 45.4428 39.6825 45.3759C40.507 45.362 41.1683 44.6854 41.1683 43.8553C41.1683 41.0778 41.1683 38.2919 41.1683 35.4521C41.1683 34.618 40.5006 33.9395 39.6719 33.9311C39.0606 33.925 38.4448 33.9187 37.8186 33.9125C33.7188 33.8684 29.619 33.8098 25.5192 33.7467C23.7447 33.7216 21.9701 33.7003 20.1948 33.6828C17.6444 33.657 15.0948 33.6174 12.5444 33.5749C11.3531 33.5673 11.3531 33.5673 10.1376 33.5604C9.39722 33.5452 8.65612 33.53 7.89312 33.5148C7.43488 33.5089 6.97663 33.5026 6.5118 33.4965C6.11831 33.4914 5.72525 33.458 5.33871 33.3837C3.93573 33.1141 2.85007 32.7709 1.77794 32.0196C1.06426 31.5194 0.589737 30.7438 0.41299 29.8868C-0.0760752 27.5155 0.139447 25.0832 0.0908656 22.6358C0.062914 22.0983 0.0349604 21.56 0.00549798 21.0057C-0.0306651 18.8449 0.0936796 17.4823 0.920717 15.9574C1.50101 14.8875 2.4104 14.0473 3.36329 13.2949C5.45235 11.6454 7.56106 10.0345 9.72281 8.47451C10.442 7.94987 10.442 7.94987 11.1748 7.41459C12.6079 6.36912 15.4834 4.29283 15.4834 4.29283C15.8408 3.97577 16.1978 3.65775 16.5657 3.33004C21.527 -0.64938 23.6533 -0.0177366 28.5591 0.119885Z" fill="white"/>
<path d="M13.9725 16.5447C15.9669 16.5447 17.9613 16.5447 20.0161 16.5447C20.0161 19.3048 20.0161 22.0648 20.0161 24.9085C18.7696 24.6576 17.5231 24.4067 16.2389 24.1481C15.491 24.399 14.7431 24.65 13.9725 24.9085C13.9725 22.1484 13.9725 19.3884 13.9725 16.5447Z" fill="#ED5735"/>
<path d="M87.0234 45.72C84.2049 45.72 81.6425 45.24 79.3364 44.28C77.0623 43.32 75.2367 41.928 73.8594 40.104C72.5142 38.248 71.8416 35.976 71.8416 33.288H80.3934C80.5535 35.08 81.2261 36.408 82.4112 37.272C83.5963 38.136 85.0696 38.568 86.8313 38.568C88.5608 38.568 89.9861 38.264 91.1072 37.656C92.2282 37.048 92.7887 36.2 92.7887 35.112C92.7887 34.184 92.4524 33.496 91.7798 33.048C91.1072 32.6 90.0822 32.168 88.705 31.752L81.018 29.496C79.5126 29.048 78.0873 28.488 76.742 27.816C75.3968 27.112 74.3078 26.152 73.4751 24.936C72.6743 23.72 72.274 22.072 72.274 19.992C72.274 17.592 72.8505 15.528 74.0035 13.8C75.1566 12.04 76.7901 10.68 78.904 9.72C81.018 8.76 83.5002 8.28 86.3508 8.28C90.4826 8.28 93.8296 9.288 96.392 11.304C98.9864 13.32 100.476 16.184 100.86 19.896H92.2122C91.5396 16.856 89.4737 15.336 86.0145 15.336C84.349 15.336 83.0678 15.656 82.171 16.296C81.3062 16.936 80.8738 17.8 80.8738 18.888C80.8738 19.688 81.1461 20.36 81.6906 20.904C82.2351 21.448 83.0999 21.896 84.2849 22.248L92.3083 24.648C95.3831 25.544 97.6251 26.776 99.0344 28.344C100.444 29.912 101.148 31.96 101.148 34.488C101.148 36.728 100.556 38.696 99.3707 40.392C98.2177 42.056 96.5842 43.368 94.4702 44.328C92.3563 45.256 89.874 45.72 87.0234 45.72Z" fill="white"/>
<path d="M106.072 45V9H113.855V20.808C114.72 19.56 115.777 18.6 117.026 17.928C118.275 17.256 119.668 16.92 121.206 16.92C123.255 16.92 125.033 17.352 126.538 18.216C128.044 19.08 129.197 20.28 129.998 21.816C130.83 23.352 131.247 25.128 131.247 27.144V45H123.464V28.728C123.464 27.16 123.031 25.912 122.166 24.984C121.334 24.056 120.181 23.592 118.707 23.592C117.202 23.592 116.017 24.136 115.152 25.224C114.287 26.28 113.855 27.688 113.855 29.448V45H106.072Z" fill="white"/>
<path d="M140.549 14.664C139.3 14.664 138.243 14.296 137.378 13.56C136.546 12.824 136.129 11.864 136.129 10.68C136.129 9.528 136.546 8.584 137.378 7.848C138.243 7.112 139.3 6.744 140.549 6.744C141.766 6.744 142.791 7.112 143.624 7.848C144.489 8.584 144.921 9.528 144.921 10.68C144.921 11.864 144.489 12.824 143.624 13.56C142.791 14.296 141.766 14.664 140.549 14.664ZM136.658 45V17.64H144.441V45H136.658Z" fill="white"/>
<path d="M150.128 45V9H157.911V27.672L165.886 17.64H175.351L166.703 27.912L175.975 45H167.135L161.658 33.96L157.911 38.376V45H150.128Z" fill="white"/>
<path d="M190.257 45.72C187.534 45.72 185.116 45.112 183.002 43.896C180.888 42.68 179.223 41 178.006 38.856C176.821 36.68 176.228 34.2 176.228 31.416C176.228 28.568 176.821 26.056 178.006 23.88C179.223 21.704 180.888 20.008 183.002 18.792C185.116 17.544 187.534 16.92 190.257 16.92C193.011 16.92 195.43 17.544 197.512 18.792C199.625 20.008 201.275 21.704 202.46 23.88C203.677 26.056 204.286 28.568 204.286 31.416C204.286 34.2 203.677 36.68 202.46 38.856C201.275 41 199.625 42.68 197.512 43.896C195.43 45.112 193.011 45.72 190.257 45.72ZM190.257 39C192.051 39 193.508 38.296 194.629 36.888C195.782 35.48 196.358 33.656 196.358 31.416C196.358 29.112 195.782 27.24 194.629 25.8C193.508 24.36 192.051 23.64 190.257 23.64C188.463 23.64 186.99 24.36 185.837 25.8C184.716 27.24 184.155 29.112 184.155 31.416C184.155 33.656 184.716 35.48 185.837 36.888C186.99 38.296 188.463 39 190.257 39Z" fill="white"/>
<path d="M146.133 10C146.133 12.7614 143.893 15 141.129 15C138.365 15 136.124 12.7614 136.124 10C136.124 7.23858 138.365 5 141.129 5C143.893 5 146.133 7.23858 146.133 10Z" fill="#ED5735"/>
</svg>
