<?xml version="1.0" encoding="UTF-8"?>
<svg id="uuid-390d01a4-6f22-4dc6-9698-931a181eca00" data-name="Layer 1" xmlns="http://www.w3.org/2000/svg" viewBox="0 0 42.04 35">
  <defs>
    <style>
      .uuid-58d9aac2-7a3c-4d7f-a2a6-49d6db4d7203 {
        fill: #ed5735;
      }

      .uuid-a4dfebd6-fdb4-4ac4-82d9-66260336a361 {
        fill: #2c3545;
      }
    </style>
  </defs>
  <path class="uuid-a4dfebd6-fdb4-4ac4-82d9-66260336a361" d="M19.99.08c.51,0,1.16,0,1.55.01,1.62.01,3.28-.05,4.9-.02,1.1.01,2.07-.01,3.17,0,2.3.02,5.84-.03,8.5-.02.47,0,.7.58.35.91l-10.21,9.81c-.49.47-1.14.74-1.82.74h-12.43v5.85c-.87-.18-1.74-.35-2.64-.53-.52.18-1.05.35-1.59.53v-5.85c-1.78.15-3.56.3-5.38.45-.55.05-.97.51-.97,1.06v6.01c0,.56.43,1.03.99,1.06,2.98.18,5.95.31,8.94.41,1.12.04,2.24.1,3.37.17,8.53.1,11.41.14,12.39.15.32,0,.59-.13.78-.4,1.05-1.52,4.78-6.87,6.33-8.91,1.47-1.86,2.32-2.83,2.76-3.31.26-.28.62-.42,1-.42.13,0,.27,0,.41,0,.9,0,1.65.75,1.65,1.65v12.94c0,.87-.35,1.71-.98,2.31l-9.52,9.14c-.73.7-1.69,1.12-2.7,1.13-.83.01-1.71.02-2.23.02h-1.73q-.93,0-1.88,0c-.63,0-1.26,0-1.92,0-2.03,0-4.05-.01-6.08-.02-1.37,0-2.74,0-4.11,0-3.37,0-6.73-.01-10.1-.03q.99-2.06,1.59-2.66c.83-.06,1.66-.09,2.49-.11.53-.01,1.06-.02,1.6-.03.58,0,1.15-.02,1.74-.03.59-.01,1.17-.02,1.78-.03,1.88-.04,3.76-.07,5.64-.1,1.27-.02,2.54-.05,3.81-.07,2.78-.05,5.56-.1,8.33-.15.58,0,1.04-.48,1.04-1.06v-5.88c0-.58-.47-1.06-1.05-1.06-.43,0-.86,0-1.3-.01-2.87-.03-5.74-.07-8.61-.12-1.24-.02-2.48-.03-3.73-.04-1.79-.02-3.57-.05-5.36-.08q-.83,0-1.68-.01c-.52-.01-1.04-.02-1.57-.03-.32,0-.64,0-.97-.01-.28,0-.55-.03-.82-.08-.98-.19-1.74-.43-2.49-.95-.5-.35-.83-.89-.96-1.49-.34-1.66-.19-3.36-.23-5.08-.02-.38-.04-.75-.06-1.14-.03-1.51.06-2.47.64-3.53.41-.75,1.04-1.34,1.71-1.86,1.46-1.15,2.94-2.28,4.45-3.37q.5-.37,1.02-.74c1-.73,3.02-2.19,3.02-2.19.25-.22.5-.44.76-.67C15.07-.45,16.56-.01,19.99.08Z"/>
  <path class="uuid-58d9aac2-7a3c-4d7f-a2a6-49d6db4d7203" d="M9.78,11.58h4.23v5.85c-.87-.18-1.75-.35-2.64-.53-.52.18-1.05.35-1.59.53v-5.85Z"/>
</svg>